<?xml version="1.0" encoding="utf-8"?>
<!-- Generator: Adobe Illustrator 24.1.1, SVG Export Plug-In . SVG Version: 6.00 Build 0)  -->
<svg version="1.1" id="Layer_1" xmlns="http://www.w3.org/2000/svg" xmlns:xlink="http://www.w3.org/1999/xlink" x="0px" y="0px"
	 viewBox="0 0 1920 2160" style="enable-background:new 0 0 1920 2160;" xml:space="preserve">
<style type="text/css">
	.st0{fill:#FF6431;}
</style>
<path class="st0" d="M85.84,220.56c-6.63,182.56-83.92,205.38,6.63,284.15s-50.06,124.41,0,203.18s598.48-81.71,514.56-171.52
	s-198.76-103.8-243.66-173.73s33.86-210.54-29.45-309.18S10.32-130.47,0.45,35.79C-3.97,110.14,88.69,142.04,85.84,220.56z"/>
<path class="st0" d="M534.76,1114.67c76.07,22.88,166.98,48.86,235.63,110.7c69.27,61.84,116.89,160.18,97.1,243.67
	c-19.79,82.87-106.37,152.14-183.68,212.13c-77.92,59.99-147.19,110.7-220.79,121.22c-73.6,9.9-152.14-20.41-250.47-27.83
	c-98.33-8.04-217.07,6.8-260.37-43.91c-42.67-50.09-10.51-165.74-13.61-268.41c-3.71-103.28-42.05-193.57-17.32-257.27
	c25.36-63.7,114.41-100.81,194.19-121.83s150.9-25.36,216.46-17.93C398.09,1072.62,459.31,1092.41,534.76,1114.67z"/>
<path class="st0" d="M1921.32-3.14c16.27,98.33-62.96,273.07-37.49,369.99c26.18,96.92,157.05,116.02,183.23,149.98
	c26.88,33.96-51.64,82.77-115.31,113.9c-64.38,30.42-113.9,42.45-156.34,47.4c-43.15,4.24-78.53,0.71-140.07,45.98
	c-61.55,45.28-149.27,139.36-232.75,158.47c-82.77,18.39-160.59-37.49-198.08-113.9c-37.49-75.7-34.66-171.91,12.73-240.53
	c47.4-68.62,137.95-109.65,195.96-150.68c58.01-40.32,82.77-79.94,118.85-167.66c35.37-87.01,82.77-221.43,162-277.32
	C1793.27-124.11,1905.05-101.48,1921.32-3.14z"/>
<path class="st0" d="M1986.05,2102.22c-110,202.81-554.3,201.1-666.02-2.58c-111.72-202.81,108.28-607.58,330.86-606.72
	C1872.61,1493.78,2096.05,1900.27,1986.05,2102.22z"/>
</svg>
