<svg id="visual" viewBox="0 0 900 600" width="900" height="600"
    xmlns="http://www.w3.org/2000/svg"
    xmlns:xlink="http://www.w3.org/1999/xlink" version="1.1">
    <rect x="0" y="0" width="900" height="600" fill="#edeaffee"></rect>
    <g fill="rgba(255, 69, 7, 0.8)">
        <circle r="45" cx="191" cy="437"></circle>
        <circle r="18" cx="749" cy="398"></circle>
        <circle r="43" cx="892" cy="112"></circle>
        <circle r="42" cx="221" cy="55"></circle>
        <circle r="31" cx="812" cy="589"></circle>
        <g transform="translate(436 288)">
            <path d="M77.2 -100C98 -91.2 111.3 -65.8 115.2 -40.5C119.2 -15.2 113.8 10 102.2 29.3C90.5 48.6 72.6 61.9 54.5 79.9C36.4 97.8 18.2 120.4 -3.9 125.8C-26.1 131.2 -52.1 119.4 -71.6 101.9C-91.1 84.4 -104 61.2 -114.8 35.5C-125.5 9.9 -134.1 -18.2 -127.2 -42C-120.4 -65.7 -98.1 -85 -74.3 -92.9C-50.5 -100.8 -25.3 -97.3 1.5 -99.3C28.2 -101.3 56.4 -108.9 77.2 -100"></path>
        </g>
        <circle r="19" cx="645" cy="1"></circle>
        <circle r="25" cx="538" cy="541"></circle>
        <circle r="49" cx="435" cy="78"></circle>
        <circle r="108" cx="-45" cy="226"></circle>
        <circle r="26" cx="34" cy="555"></circle>
        <circle r="62" cx="648" cy="233"></circle>
        <circle r="39" cx="254" cy="242"></circle>
        <circle r="34" cx="343" cy="566"></circle>
        <circle r="38" cx="30" cy="9"></circle>
    </g>
</svg>